<svg xmlns="http://www.w3.org/2000/svg" viewBox="0 0 650 470"><rect width="650" height="470" rx="28" fill="#e8efdf"/><path d="M-20 400 140 250 320 300 480 100 690 150" fill="none" stroke="#f9fbf6" stroke-width="90"/><path d="M-20 400 140 250 320 300 480 100 690 150" fill="none" stroke="#becdae" stroke-width="2" stroke-dasharray="8 12"/><path d="M140 250 320 300 480 100" fill="none" stroke="#155e56" stroke-width="6" stroke-linecap="round"/><g fill="#155e56" stroke="#fff" stroke-width="5"><circle cx="140" cy="250" r="17"/><circle cx="320" cy="300" r="17"/><circle cx="480" cy="100" r="17"/></g><g transform="translate(255 175)"><rect width="148" height="78" rx="13" fill="#fff" stroke="#ced8c4" stroke-width="2"/><path d="M30 51V27h53v24m0-18h20l14 18H83" fill="none" stroke="#155e56" stroke-width="5" stroke-linejoin="round"/><circle cx="47" cy="54" r="7" fill="#155e56"/><circle cx="99" cy="54" r="7" fill="#155e56"/></g><g fill="#c8d9b3"><rect x="60" y="65" width="105" height="76" rx="14"/><rect x="390" y="365" width="135" height="67" rx="14"/><rect x="505" y="230" width="90" height="83" rx="14"/></g></svg>
